<svg width="12" height="12" viewBox="0 0 12 12" fill="none" xmlns="http://www.w3.org/2000/svg">
<path d="M12 5C12 5.55228 11.5523 6 11 6L7 6C6.44772 6 6 5.55228 6 5C6 4.44772 6.44772 4 7 4L11 4C11.5523 4 12 4.44772 12 5Z" fill="#7B7D80"/>
<path d="M7 0C7.55228 0 8 0.447715 8 1V5C8 5.55228 7.55228 6 7 6C6.44772 6 6 5.55228 6 5L6 1C6 0.447715 6.44772 0 7 0Z" fill="#7B7D80"/>
<path d="M0 7C0 6.44772 0.447715 6 1 6H5C5.55228 6 6 6.44772 6 7C6 7.55228 5.55228 8 5 8H1C0.447715 8 0 7.55228 0 7Z" fill="#7B7D80"/>
<path d="M5 12C4.44772 12 4 11.5523 4 11V7C4 6.44772 4.44772 6 5 6C5.55228 6 6 6.44772 6 7V11C6 11.5523 5.55228 12 5 12Z" fill="#7B7D80"/>
</svg>
